<svg width="10" height="17" viewBox="0 0 10 17" fill="none" xmlns="http://www.w3.org/2000/svg">
<path fill-rule="evenodd" clip-rule="evenodd" d="M5.54618 0.278053C5.71236 0.398014 5.98037 0.673569 5.98037 0.673569C7.02079 1.6487 8.58785 4.07406 9.09109 5.30456C9.10163 5.30456 9.40006 6.0362 9.41177 6.38421V6.43053C9.41177 6.96383 9.11333 7.46268 8.6335 7.71804C8.43569 7.82332 7.95456 7.92123 7.72244 7.96847C7.64556 7.98412 7.59599 7.9942 7.59308 7.99716C6.90727 8.10168 5.85514 8.17057 4.70003 8.17057C3.48757 8.17057 2.38981 8.10168 1.71453 7.9734C1.70282 7.9734 1.08606 7.84632 0.880085 7.76436C0.582823 7.63727 0.331202 7.40448 0.170868 7.11467C0.0561757 6.88306 0 6.63839 0 6.38421C0.0105329 6.11697 0.182571 5.61812 0.262153 5.42096C0.765393 4.12038 2.41204 1.63682 3.41852 0.685447C3.52307 0.57934 3.64206 0.468183 3.72485 0.390836C3.76902 0.349567 3.8029 0.317924 3.81877 0.301807C4.07039 0.104643 4.37936 0.00012207 4.71173 0.00012207C5.00783 0.00012207 5.30509 0.0927656 5.54618 0.278053ZM3.77162 10.8384C3.77162 10.3146 4.18942 9.89062 4.70554 9.89062C5.22165 9.89062 5.63946 10.3146 5.63946 10.8384L5.89576 15.4172C5.89576 16.0847 5.36326 16.6251 4.70554 16.6251C4.04781 16.6251 3.51414 16.0847 3.51414 15.4172L3.77162 10.8384Z" fill="#130F26"/>
</svg>
