<svg width="20" height="20" viewBox="0 0 21 20" fill="none" xmlns="http://www.w3.org/2000/svg">
<path fill-rule="evenodd" clip-rule="evenodd" d="M12.4221 9.23312H15.1899C15.6096 9.23312 15.9393 8.88615 15.9393 8.46774C15.9393 8.03912 15.6096 7.70236 15.1899 7.70236H12.4221C12.0024 7.70236 11.6727 8.03912 11.6727 8.46774C11.6727 8.88615 12.0024 9.23312 12.4221 9.23312ZM18.4774 3.92749C19.0869 3.92749 19.4866 4.1418 19.8863 4.61123C20.2859 5.08067 20.3559 5.7542 20.266 6.36549L19.3167 13.06C19.1368 14.3469 18.0577 15.2949 16.7887 15.2949H5.88717C4.55821 15.2949 3.45906 14.255 3.34915 12.908L2.42986 1.7834L0.92104 1.51807C0.521352 1.44664 0.24157 1.04864 0.311515 0.640433C0.381461 0.223045 0.771157 -0.0535127 1.18084 0.0087383L3.56398 0.375101C3.90372 0.437352 4.15352 0.722074 4.1835 1.06905L4.37335 3.35499C4.40333 3.68257 4.66312 3.92749 4.98287 3.92749H18.4774ZM5.72709 16.9079C4.88775 16.9079 4.20828 17.6018 4.20828 18.459C4.20828 19.3061 4.88775 20 5.72709 20C6.55645 20 7.23592 19.3061 7.23592 18.459C7.23592 17.6018 6.55645 16.9079 5.72709 16.9079ZM16.9683 16.9079C16.129 16.9079 15.4495 17.6018 15.4495 18.459C15.4495 19.3061 16.129 20 16.9683 20C17.7977 20 18.4772 19.3061 18.4772 18.459C18.4772 17.6018 17.7977 16.9079 16.9683 16.9079Z" fill="#606060"/>
</svg>
