<svg width="20" height="20" viewBox="0 0 21 20" fill="none" xmlns="http://www.w3.org/2000/svg">
<path fill-rule="evenodd" clip-rule="evenodd" d="M5.63078 0.000244141H14.9698C18.3708 0.000244141 20.2908 1.92924 20.3008 5.33024V14.6702C20.3008 18.0702 18.3708 20.0002 14.9698 20.0002H5.63078C2.22978 20.0002 0.300781 18.0702 0.300781 14.6702V5.33024C0.300781 1.92924 2.22978 0.000244141 5.63078 0.000244141ZM10.3498 15.8602C10.7808 15.8602 11.1398 15.5402 11.1798 15.1102V4.92024C11.2198 4.61024 11.0708 4.29924 10.8008 4.13024C10.5198 3.96024 10.1798 3.96024 9.91085 4.13024C9.63985 4.29924 9.49085 4.61024 9.51985 4.92024V15.1102C9.57085 15.5402 9.92985 15.8602 10.3498 15.8602ZM14.9508 15.8602C15.3708 15.8602 15.7298 15.5402 15.7808 15.1102V11.8302C15.8098 11.5092 15.6608 11.2102 15.3898 11.0402C15.1208 10.8702 14.7808 10.8702 14.5008 11.0402C14.2298 11.2102 14.0808 11.5092 14.1208 11.8302V15.1102C14.1608 15.5402 14.5198 15.8602 14.9508 15.8602ZM6.51981 15.1102C6.47981 15.5402 6.12081 15.8602 5.68981 15.8602C5.25981 15.8602 4.89981 15.5402 4.86081 15.1102V8.20024C4.83081 7.88924 4.97981 7.58024 5.25081 7.41024C5.51981 7.24024 5.86081 7.24024 6.13081 7.41024C6.39981 7.58024 6.55081 7.88924 6.51981 8.20024V15.1102Z" fill="#606060"/>
</svg>
