<svg width="20" height="20" viewBox="0 0 25 24" fill="none" xmlns="http://www.w3.org/2000/svg">
<path fill-rule="evenodd" clip-rule="evenodd" d="M7.97078 1.99927H16.6408C20.0308 1.99927 22.3008 4.37927 22.3008 7.91927V16.0903C22.3008 19.6203 20.0308 21.9993 16.6408 21.9993H7.97078C4.58078 21.9993 2.30078 19.6203 2.30078 16.0903V7.91927C2.30078 4.37927 4.58078 1.99927 7.97078 1.99927ZM12.2909 9.06029C11.8209 9.06029 11.4309 8.66929 11.4309 8.19029C11.4309 7.70029 11.8209 7.31029 12.3109 7.31029C12.7909 7.31029 13.1809 7.70029 13.1809 8.19029C13.1809 8.66929 12.7909 9.06029 12.2909 9.06029ZM13.1707 15.7803C13.1707 16.2603 12.7807 16.6503 12.2907 16.6503C11.8107 16.6503 11.4207 16.2603 11.4207 15.7803V11.3603C11.4207 10.8793 11.8107 10.4803 12.2907 10.4803C12.7807 10.4803 13.1707 10.8793 13.1707 11.3603V15.7803Z" fill="#606060"/>
</svg>
