<svg width="146" height="78" viewBox="0 0 146 78" fill="none" xmlns="http://www.w3.org/2000/svg">
<path d="M16.128 62.384C12.8427 62.384 10.304 61.488 8.512 59.696C6.72 57.8613 5.824 55.3013 5.824 52.016V14.512H11.968V51.504C11.968 53.3387 12.3947 54.7467 13.248 55.728C14.144 56.7093 15.4667 57.2 17.216 57.2C18.2827 57.2 19.2853 56.9867 20.224 56.56L20.544 61.616C19.136 62.128 17.664 62.384 16.128 62.384ZM40.2895 62.384C36.9188 62.384 33.8895 61.6373 31.2015 60.144C28.5135 58.6507 26.4015 56.6027 24.8655 54C23.3722 51.3547 22.6255 48.368 22.6255 45.04C22.6255 41.712 23.3722 38.7467 24.8655 36.144C26.4015 33.4987 28.5135 31.4507 31.2015 30C33.8895 28.5067 36.9188 27.76 40.2895 27.76C43.6602 27.76 46.6682 28.5067 49.3135 30C52.0015 31.4507 54.0922 33.4987 55.5855 36.144C57.1215 38.7467 57.8895 41.712 57.8895 45.04C57.8895 48.368 57.1215 51.3547 55.5855 54C54.0922 56.6027 52.0015 58.6507 49.3135 60.144C46.6682 61.6373 43.6602 62.384 40.2895 62.384ZM40.2895 57.008C42.4655 57.008 44.4068 56.5173 46.1135 55.536C47.8628 54.512 49.2282 53.104 50.2095 51.312C51.1908 49.4773 51.6815 47.3867 51.6815 45.04C51.6815 42.6933 51.1908 40.624 50.2095 38.832C49.2282 36.9973 47.8628 35.5893 46.1135 34.608C44.4068 33.6267 42.4655 33.136 40.2895 33.136C38.1135 33.136 36.1508 33.6267 34.4015 34.608C32.6948 35.5893 31.3295 36.9973 30.3055 38.832C29.3242 40.624 28.8335 42.6933 28.8335 45.04C28.8335 47.3867 29.3242 49.4773 30.3055 51.312C31.3295 53.104 32.6948 54.512 34.4015 55.536C36.1508 56.5173 38.1135 57.008 40.2895 57.008ZM98.8345 28.08V57.392C98.8345 63.3227 97.3625 67.696 94.4185 70.512C91.4745 73.3707 87.0798 74.8 81.2345 74.8C78.0345 74.8 74.9838 74.352 72.0825 73.456C69.1812 72.6027 66.8345 71.3653 65.0425 69.744L67.9865 65.008C69.5652 66.3733 71.5065 67.44 73.8105 68.208C76.1572 69.0187 78.5678 69.424 81.0425 69.424C85.0105 69.424 87.9332 68.4853 89.8105 66.608C91.7305 64.7307 92.6905 61.872 92.6905 58.032V55.344C91.2398 57.0933 89.4478 58.416 87.3145 59.312C85.2238 60.1653 82.9412 60.592 80.4665 60.592C77.2238 60.592 74.2798 59.9093 71.6345 58.544C69.0318 57.136 66.9838 55.1947 65.4905 52.72C63.9972 50.2027 63.2505 47.344 63.2505 44.144C63.2505 40.944 63.9972 38.1067 65.4905 35.632C66.9838 33.1147 69.0318 31.1733 71.6345 29.808C74.2798 28.4427 77.2238 27.76 80.4665 27.76C83.0265 27.76 85.3945 28.2293 87.5705 29.168C89.7892 30.1067 91.6025 31.4933 93.0105 33.328V28.08H98.8345ZM81.1705 55.216C83.3892 55.216 85.3732 54.7467 87.1225 53.808C88.9145 52.8693 90.3012 51.568 91.2825 49.904C92.3065 48.1973 92.8185 46.2773 92.8185 44.144C92.8185 40.8587 91.7305 38.2133 89.5545 36.208C87.3785 34.16 84.5838 33.136 81.1705 33.136C77.7145 33.136 74.8985 34.16 72.7225 36.208C70.5465 38.2133 69.4585 40.8587 69.4585 44.144C69.4585 46.2773 69.9492 48.1973 70.9305 49.904C71.9545 51.568 73.3412 52.8693 75.0905 53.808C76.8825 54.7467 78.9092 55.216 81.1705 55.216ZM125.102 62.384C121.731 62.384 118.702 61.6373 116.014 60.144C113.326 58.6507 111.214 56.6027 109.678 54C108.185 51.3547 107.438 48.368 107.438 45.04C107.438 41.712 108.185 38.7467 109.678 36.144C111.214 33.4987 113.326 31.4507 116.014 30C118.702 28.5067 121.731 27.76 125.102 27.76C128.473 27.76 131.481 28.5067 134.126 30C136.814 31.4507 138.905 33.4987 140.398 36.144C141.934 38.7467 142.702 41.712 142.702 45.04C142.702 48.368 141.934 51.3547 140.398 54C138.905 56.6027 136.814 58.6507 134.126 60.144C131.481 61.6373 128.473 62.384 125.102 62.384ZM125.102 57.008C127.278 57.008 129.219 56.5173 130.926 55.536C132.675 54.512 134.041 53.104 135.022 51.312C136.003 49.4773 136.494 47.3867 136.494 45.04C136.494 42.6933 136.003 40.624 135.022 38.832C134.041 36.9973 132.675 35.5893 130.926 34.608C129.219 33.6267 127.278 33.136 125.102 33.136C122.926 33.136 120.963 33.6267 119.214 34.608C117.507 35.5893 116.142 36.9973 115.118 38.832C114.137 40.624 113.646 42.6933 113.646 45.04C113.646 47.3867 114.137 49.4773 115.118 51.312C116.142 53.104 117.507 54.512 119.214 55.536C120.963 56.5173 122.926 57.008 125.102 57.008Z" fill="#FDC761"/>
</svg>
