<svg width="25" height="24" viewBox="0 0 25 24" fill="none" xmlns="http://www.w3.org/2000/svg">
<path fill-rule="evenodd" clip-rule="evenodd" d="M20.7031 13.58C21.0608 13.77 21.3367 14.07 21.5309 14.37C21.909 14.99 21.8784 15.75 21.5105 16.42L20.7951 17.62C20.417 18.26 19.7118 18.66 18.9862 18.66C18.6286 18.66 18.23 18.56 17.903 18.36C17.6373 18.19 17.3307 18.13 17.0036 18.13C15.9919 18.13 15.1437 18.96 15.113 19.95C15.113 21.1 14.1728 22 12.9976 22H11.6077C10.4222 22 9.48203 21.1 9.48203 19.95C9.4616 18.96 8.61337 18.13 7.60163 18.13C7.26439 18.13 6.9578 18.19 6.70231 18.36C6.37528 18.56 5.9665 18.66 5.61904 18.66C4.88323 18.66 4.17808 18.26 3.79995 17.62L3.0948 16.42C2.71668 15.77 2.69624 14.99 3.07436 14.37C3.23788 14.07 3.54446 13.77 3.89193 13.58C4.17808 13.44 4.36203 13.21 4.53576 12.94C5.04674 12.08 4.74015 10.95 3.87149 10.44C2.85975 9.87 2.53272 8.6 3.11524 7.61L3.79995 6.43C4.39269 5.44 5.65991 5.09 6.68187 5.67C7.57097 6.15 8.72579 5.83 9.24698 4.98C9.4105 4.7 9.50247 4.4 9.48203 4.1C9.4616 3.71 9.57401 3.34 9.76818 3.04C10.1463 2.42 10.831 2.02 11.577 2H13.018C13.7743 2 14.459 2.42 14.8371 3.04C15.021 3.34 15.1437 3.71 15.113 4.1C15.0926 4.4 15.1846 4.7 15.3481 4.98C15.8693 5.83 17.0241 6.15 17.9234 5.67C18.9351 5.09 20.2126 5.44 20.7951 6.43L21.4798 7.61C22.0725 8.6 21.7455 9.87 20.7236 10.44C19.8549 10.95 19.5483 12.08 20.0695 12.94C20.233 13.21 20.417 13.44 20.7031 13.58ZM9.41039 12.01C9.41039 13.58 10.7083 14.83 12.3128 14.83C13.9172 14.83 15.1845 13.58 15.1845 12.01C15.1845 10.44 13.9172 9.18 12.3128 9.18C10.7083 9.18 9.41039 10.44 9.41039 12.01Z" fill="#FDC761"/>
</svg>
