<svg width="20" height="20" viewBox="0 0 24 22" fill="none" xmlns="http://www.w3.org/2000/svg">
<path d="M20.8382 3.61012C20.3274 3.09912 19.721 2.69376 19.0535 2.4172C18.3861 2.14064 17.6707 1.99829 16.9482 1.99829C16.2257 1.99829 15.5103 2.14064 14.8428 2.4172C14.1754 2.69376 13.5689 3.09912 13.0582 3.61012L11.9982 4.67012L10.9382 3.61012C9.90647 2.57842 8.5072 1.99883 7.04817 1.99883C5.58913 1.99883 4.18986 2.57842 3.15817 3.61012C2.12647 4.64181 1.54688 6.04108 1.54688 7.50012C1.54687 8.95915 2.12647 10.3584 3.15817 11.3901L4.21817 12.4501L11.9982 20.2301L19.7782 12.4501L20.8382 11.3901C21.3492 10.8794 21.7545 10.2729 22.0311 9.60547C22.3076 8.93801 22.45 8.2226 22.45 7.50012C22.45 6.77763 22.3076 6.06222 22.0311 5.39476C21.7545 4.7273 21.3492 4.12087 20.8382 3.61012V3.61012Z" stroke="#606060" stroke-width="2" stroke-linecap="round" stroke-linejoin="round"/>
</svg>
