<svg width="10" height="17" viewBox="0 0 10 17" fill="none" xmlns="http://www.w3.org/2000/svg">
<path fill-rule="evenodd" clip-rule="evenodd" d="M6.22863 6.1619C6.22863 6.68571 5.81082 7.10974 5.29471 7.10974C4.77859 7.10974 4.36079 6.68571 4.36079 6.1619L4.10332 1.58308C4.10332 0.915554 4.63699 0.375122 5.29471 0.375122C5.95243 0.375122 6.48493 0.915554 6.48493 1.58308L6.22863 6.1619ZM9.11992 9.23571C9.41718 9.36399 9.6688 9.59561 9.82914 9.88542C9.94383 10.117 10 10.3617 10 10.6171C9.98947 10.8831 9.81744 11.3832 9.73668 11.5804C9.23461 12.8798 7.58679 15.3634 6.58148 16.316C6.47866 16.4196 6.36189 16.5285 6.2793 16.6056C6.2331 16.6487 6.1976 16.6818 6.18123 16.6984C5.92844 16.8956 5.62065 17.0001 5.28944 17.0001C4.99101 17.0001 4.69375 16.9075 4.45383 16.721C4.28764 16.6022 4.01964 16.3267 4.01964 16.3267C2.97805 15.3527 1.41215 12.9261 0.908911 11.6956C0.897208 11.6956 0.599945 10.9651 0.588242 10.6171V10.5708C0.588242 10.0363 0.885504 9.53741 1.36651 9.28204C1.56392 9.17785 2.04352 9.07968 2.27617 9.03205C2.35385 9.01615 2.404 9.00589 2.40693 9.00291C3.09274 8.89839 4.14486 8.8295 5.29998 8.8295C6.51243 8.8295 7.6102 8.89839 8.28548 9.02667C8.29601 9.02667 8.91394 9.15376 9.11992 9.23571Z" fill="#130F26"/>
</svg>
